<?xml version="1.0" encoding="UTF-8"?>
<!-- Created with Inkscape (http://www.inkscape.org/) -->
<svg width="173.8mm" height="209.46mm" version="1.1" viewBox="0 0 173.8 209.46" xmlns="http://www.w3.org/2000/svg" xmlns:xlink="http://www.w3.org/1999/xlink">
 <defs>
  <linearGradient id="linearGradient128142">
   <stop stop-color="#008000" offset="0"/>
   <stop stop-color="#008000" stop-opacity="0" offset="1"/>
  </linearGradient>
  <linearGradient id="linearGradient106195">
   <stop stop-color="#fff" stop-opacity="0" offset="0"/>
   <stop stop-color="#fff" offset=".47225"/>
   <stop stop-color="#fff" stop-opacity="0" offset="1"/>
  </linearGradient>
  <linearGradient id="linearGradient104731">
   <stop stop-color="#fff" offset="0"/>
   <stop stop-color="#fff" stop-opacity="0" offset="1"/>
  </linearGradient>
  <linearGradient id="linearGradient104318">
   <stop stop-color="#fff" stop-opacity="0" offset="0"/>
   <stop stop-color="#fff" offset="1"/>
  </linearGradient>
  <linearGradient id="linearGradient94440">
   <stop stop-color="#00aa2a" offset="0"/>
   <stop stop-color="#241c1c" offset="1"/>
  </linearGradient>
  <linearGradient id="linearGradient94240">
   <stop stop-color="#00e022" offset="0"/>
   <stop stop-color="#241c1c" offset="1"/>
  </linearGradient>
  <linearGradient id="linearGradient94026">
   <stop stop-color="#006900" offset="0"/>
   <stop offset="1"/>
  </linearGradient>
  <linearGradient id="linearGradient93696">
   <stop stop-color="#00c80a" stop-opacity=".90196" offset="0"/>
   <stop offset="1"/>
  </linearGradient>
  <linearGradient id="linearGradient93698" x1="164.25" x2="168.93" y1="57.5" y2="94.186" gradientUnits="userSpaceOnUse" xlink:href="#linearGradient93696"/>
  <linearGradient id="linearGradient94028" x1="150" x2="165" y1="23.875" y2="26.125" gradientUnits="userSpaceOnUse" xlink:href="#linearGradient94026"/>
  <linearGradient id="linearGradient94242" x1="206.56" x2="198.34" y1="111.16" y2="104.56" gradientUnits="userSpaceOnUse" xlink:href="#linearGradient94240"/>
  <linearGradient id="linearGradient94442" x1="175.19" x2="174.92" y1="111.55" y2="105.71" gradientUnits="userSpaceOnUse" xlink:href="#linearGradient94440"/>
  <filter id="filter104196" x="-.018283" y="-.025821" width="1.0439" height="1.0519" color-interpolation-filters="sRGB">
   <feGaussianBlur stdDeviation="0.11803977"/>
  </filter>
  <linearGradient id="linearGradient104320" x1="85.079" x2="103.74" y1="61.125" y2="69.626" gradientTransform="translate(117.55 33.832)" gradientUnits="userSpaceOnUse" xlink:href="#linearGradient104318"/>
  <filter id="filter104723" x="-.015075" y="-.038226" width="1.0325" height="1.0819" color-interpolation-filters="sRGB">
   <feGaussianBlur stdDeviation="0.079759188"/>
  </filter>
  <linearGradient id="linearGradient104733" x1="103.74" x2="87.38" y1="69.626" y2="60.724" gradientTransform="translate(117.55 33.832)" gradientUnits="userSpaceOnUse" xlink:href="#linearGradient104731"/>
  <linearGradient id="linearGradient105606" x1="109.91" x2="85.528" y1="67.684" y2="57.63" gradientTransform="translate(-45.697 -9.104)" gradientUnits="userSpaceOnUse" xlink:href="#linearGradient106195"/>
  <linearGradient id="linearGradient110937" x1="163.16" x2="152.38" y1="98.553" y2="94.045" gradientUnits="userSpaceOnUse" xlink:href="#linearGradient128142"/>
  <linearGradient id="linearGradient111685" x1="37.186" x2="37.363" y1="200.59" y2="188.2" gradientTransform="matrix(1.084 0 0 1.0828 -1.8747 -15.623)" gradientUnits="userSpaceOnUse" xlink:href="#linearGradient128142"/>
  <linearGradient id="linearGradient117571" x1="195.97" x2="192.82" y1="109.95" y2="107.82" gradientUnits="userSpaceOnUse" xlink:href="#linearGradient128142"/>
  <linearGradient id="linearGradient121950" x1="198.12" x2="194.92" y1="115.02" y2="116.54" gradientUnits="userSpaceOnUse" xlink:href="#linearGradient128142"/>
  <linearGradient id="linearGradient128144" x1="195.4" x2="192.53" y1="110.64" y2="113.02" gradientUnits="userSpaceOnUse" xlink:href="#linearGradient128142"/>
 </defs>
 <g transform="translate(-18.844 -43.192)">
  <g transform="matrix(1.5346 0 0 1.5346 -528 278.5)">
   <g transform="matrix(1.3747 0 0 1.3747 157.95 -191.23)">
    <g transform="translate(4.9301 6.5735)">
     <g transform="translate(-5.4499e-6)">
      <path d="m139.86 40.556s1.0324-6.6571 4.0371-10.682c2.266-3.035 5.9825-5.1933 10.808-4.6242 1.9133 0.22565 4.3119 0.77584 6.1225 2.0386 2.6008 1.8139 3.9863 4.3695 4.1296 4.9669 0.63029 1.0511 1.9628 5.8145 1.5045 7.8067 0.57314-2.5066 0.49525-4.33 0.47816-5.9015-0.0403-3.7087-0.75505-5.4093-1.5765-7.0233-0.95278-1.8719-2.5034-3.5339-4.5096-4.5744-1.7382-0.90152-4.1821-1.5512-6.5144-1.5478-2.1962 0.0032-5.0407 0.03612-9.0081 2.6591-2.8737 1.8998-4.2559 4.2886-4.8402 5.7373-2.0476 5.0767-0.6308 11.144-0.6308 11.144z" fill="url(#linearGradient94028)"/>
      <path d="m153.39 20.992c5.1057 2.6137 11.213 7.8744 12.652 14.445 1.4397 6.5709-0.94869 12.979-6.4258 20.551-5.6799 7.852-8.3315 14.025-10.033 18.562 1.8741 5.0223 6.7205 7.8618 10.992 10.645 9.0169 5.8739 20.081 5.911 29.176 9.4043 4.4512 1.9852 7.8571 3.8381 12.5 8.8691 0.85614-0.17913 5.2308 1.7306 8.5312 2.4062 1.9729 0.21797 3.4615 0.47264 5.0215 0.28906 1.871-0.22018 4.1314-1.4599 5.957-2.4629-0.9134-3.0012-2.5367-6.5443-5.6484-9.1562-2.36-2.4045-5.7295-4.147-7.2676-4.7949-2.3498-0.96818-4.6904-1.442-7.3281-1.6406-2.8942-0.03045-5.8517 0.43382-8.6406 0.82812 0 0-4.4337 0.7864-6.6719 1.1504-3.7122 0.60369-8.1959 0.58756-12.715-0.53711-3.8705-0.96328-7.1887-3.0586-9.1562-6.6152-1.4727-2.9658-1.6091-7.1011 0.53906-11.73 1.4565-3.1388 4.0696-7.4415 6.3106-11.031 4.9806-7.9786 6.129-15.65 4.2578-23.229-2.1176-8.5767-8.896-16.066-22.051-15.953z" fill="url(#linearGradient93698)"/>
      <path d="m170.67 106.65c1.0065-1.3417 1.6947-2.6463 1.932-3.4432 0.23939-0.80366 0.34746-2.06 0.26325-3.0714-0.20588-2.4728-1.5792-3.8666-3.9291-5.9537 0.97131 1.0964 2.0612 2.1911 2.5446 3.091 0.64518 1.2008 0.93285 2.2504 0.92148 3.6209-0.0157 1.8885-0.64839 3.8211-2.0884 5.3392-1.2484 1.316-3.3991 2.1515-5.1259 2.2612-2.0536 0.13056-4.3736-1.0934-4.3736-1.0934l-1.174 0.30549 0.55176 2.2465s1.3581 1.1868 2.281 1.8192c1.0271 0.70381 3.5451 1.026 2.0834 2.9268-1.557 2.0247-2.6771-0.68648-3.5558-1.3437-1.0784-0.8065-1.9472-1.1795-2.2412-0.83197-0.74712 0.88314 1.2774 3.3759-2.3242 2.7742v1e-5c-4.0422-1.0425-0.5455-2.4112-1.2401-3.7349-0.29627-0.56461-1.2863-0.21783-2.1832 0.0483-1.0505 0.31171-3.3054 2.1891-3.7945-0.2709-0.53852-2.7087 1.9136-1.5105 3.0947-1.7045 1.001-0.16437 3.2067-1.1508 3.2067-1.1508 1.1044-1.0553-1.0093-3.4937-0.59191-4.2378 0.52248-0.93135 2.3252 0.73202 3.0278-0.67286-0.29347-1.1464-0.59821-2.6222-1.5434-3.4277-0.69257-0.48153-1.5829-1.2008-2.3496-2.0848-4.1615-4.7978-6.5533-11.549-5.9163-17.831 0.82867-8.1729 7.2633-17.825 7.2633-17.825-0.0199 0.05954 0.14069 5.1058 1.2365 9.9066 0.73021 3.1991 2.1563 6.1957 3.1936 7.8773 4.551 7.3776 14.463 10.796 22.738 10.224 6.7443-0.46665 11.532-2.0908 17.888-2.3142 4.8528-0.17055 10.553 2.0683 14.043 4.9394 4.7598 3.915 6.0156 6.6149 7.2536 10.659-5.2939 2.8563-5.7356 2.738-10.367 2.275-2.2742-0.2273-5.78-1.6626-8.3806-2.4222-1.0959-0.32012-2.3202 0.57498-2.8583 0.6125-0.93681 0.0653-0.16414 0.76392-2.3158 1.284-0.62773 0.15172-1.3462 0.67982-1.5123 0.91283-0.42833 0.60089-0.64252 0.94447-1.2233 1.7079-0.74696 0.98189-1.3434 1.5826-2.852 2.71 1.8887 1.34 2.8159 2.1831 4.5643 3.8607 1.1543 0.32826 3.4384 1.2829 4.6727 1.7484 0.5464 0.20606 0.65772 0.48276 0.70762 0.9005 0.0596 0.49836-0.51379 1.6234-1.4435 1.6548-0.27131 9e-3 -0.77896 0.1888-1.1217-0.33619-0.25237-0.38658-0.64143-0.94817-0.90102-1.1652-0.49338-0.41244-1.2316-0.9545-1.2316-0.9545 0.25443 0.34714 0.40746 0.57862 0.69672 0.92866 0.17951 0.21722 0.59901 0.39637 0.8278 0.85571 0.21073 0.42321 0.18029 1.2587 0.036 1.4185-0.39863 0.44146-2.5381 0.77844-3.1404 0.45936-0.17269-0.0915-0.79223-0.33741-0.99311-0.83808-0.17731-0.44202-0.0434-1.0015-0.066-1.4112-0.0277-0.50443 0.28216-1.4647 0.0175-1.1994-0.2833 0.28391-0.57299 1.5257-0.73713 2.4557-0.0817 0.46259-0.58063 0.76711-0.71751 0.85881-0.39911 0.26754-2.7273-0.34533-2.8929-0.77672-0.0873-0.22737-0.10556-1.0434 0.13905-1.3909 0.40288-0.57232 1.225-1.084 1.5576-1.3933 0.82754-0.76951 1.2092-1.131 1.2092-1.131-0.38008-0.29857-1.052-0.78647-1.5356-1.0332-0.81692-0.41685-2.0598-0.94694-3.4292-1.4176-0.91369-0.31402-3-1.2188-3-1.2188-0.0372-0.88543 0.50621-1.2933 1.1281-2.0739 0.71632-0.89902 1.2736-2.5966 1.2736-2.5966-2.6226-0.17168-15.515 0.0619-16.54-0.17727z" fill="#00dc32" fill-opacity=".90152"/>
      <path d="m176.35 106.91 0.92753 1.83s1.4715 0.74908 2.4325 1.1036c1.0695 0.39451 3.3768 0.11616 2.5053 2.1311-0.9283 2.1462-2.5302-9e-3 -3.4575-0.3958-1.138-0.4742-1.9928-0.61059-2.1759-0.23619-0.46526 0.95139 1.8905 2.7103-1.4413 2.9835v1e-5c-3.8218-0.0194-1.0246-2.0181-1.9379-3.0374-0.38953-0.43478-1.1906 0.0949-1.9272 0.5322-0.86263 0.51214-2.4435 2.684-3.429 0.60999-1.0851-2.2837 1.3601-1.7697 2.3651-2.2066 0.85175-0.37027 2.5936-1.7656 2.5936-1.7656 0.0167-0.51924-0.0376-1.5831-0.0376-1.5831 1.3284 0.01 2.5209 0.01 3.5825 0.0342z" fill="url(#linearGradient94442)"/>
      <path d="m200.93 105.28c2.0016 1.42 3.0545 2.1417 4.9074 3.9196 1.2233 0.34788 3.6439 1.3596 4.952 1.8529 0.57906 0.21838 0.69703 0.51162 0.74992 0.95433 0.0632 0.52815-0.5445 1.7204-1.5298 1.7537-0.28752 0.01-0.82552 0.20009-1.1888-0.35628-0.26745-0.40969-0.67977-1.0048-0.95487-1.2348-0.52287-0.43709-1.3052-1.0116-1.3052-1.0116 0.26964 0.36789 0.43182 0.6132 0.73837 0.98417 0.19024 0.2302 0.63481 0.42006 0.87728 0.90685 0.22332 0.44851 0.19106 1.3339 0.0382 1.5033-0.42246 0.46785-2.6898 0.82497-3.3281 0.48682-0.18301-0.097-0.83958-0.35758-1.0525-0.88818-0.18791-0.46844-0.046-1.0613-0.07-1.4956-0.0293-0.53458 0.29903-1.5522 0.0186-1.2711-0.30023 0.30088-0.60724 1.6169-0.78119 2.6024-0.0866 0.49024-0.61534 0.81296-0.7604 0.91014-0.42296 0.28353-2.8904-0.36597-3.0658-0.82315-0.0925-0.24096-0.11187-1.1058 0.14736-1.4741 0.42696-0.60653 1.2982-1.1488 1.6507-1.4766 0.877-0.8155 1.2815-1.1986 1.2815-1.1986-0.4028-0.31642-1.1149-0.83348-1.6274-1.095-0.86575-0.44177-2.183-1.0035-3.6342-1.5023-0.96831-0.33279-1.0366-0.46393-1.0366-0.46393 0.11008-0.14057 0.24147-0.38725 0.45689-0.6076 0.22682-0.23201 0.54081-0.43723 0.77573-0.55683 0.13508-0.0688 0.47675-0.22603 1.2953-0.44966 0.45678-0.12479 0.81562-0.43646 0.92855-0.56039 0.40575-0.44527 1.0115 0.43873 1.517 0.59143z" fill="url(#linearGradient94242)"/>
      <g fill="none" stroke-width=".3">
       <path d="m202.98 102.73s7.5345 2.762 11.369 3.0074c2.6347 0.1686 5.3429-1.2877 6.95-2.281-1.1519-2.9499-2.6326-5.618-4.7664-7.7262-3.1863-2.9709-6.5312-5.4253-11.963-6.624" filter="url(#filter104196)" stroke="url(#linearGradient104320)"/>
       <path d="m221.3 103.46s-4.8154-3.9144-7.6828-5.3039c-2.7329-1.3244-8.6866-3.6877-8.6866-3.6877" filter="url(#filter104723)" stroke="url(#linearGradient104733)"/>
       <path d="m221.3 103.46s-4.8154-3.9144-7.6828-5.3039c-2.7329-1.3244-8.6866-3.6877-8.6866-3.6877" filter="url(#filter104723)" stroke="url(#linearGradient104733)"/>
       <path transform="matrix(1.3269 0 0 1.3269 100.29 15.775)" d="m62.511 57.914s-8.794-2.0188-12.016-2.9168c-4.8559-1.3531-8.1653-4.806-8.1653-4.806" filter="url(#filter104723)" stroke="url(#linearGradient105606)"/>
      </g>
      <path d="m157.16 101.06s-0.62421-2.6182 0.0283-4.556c0.85466-2.5382 2-3.75 2-3.75-3.4463-1.1687-6.9299-2.7852-10.494-5.3637 0.053 0.79185 1.0858 4.0666 2.7812 6.9942 1.4699 2.5382 3.6135 4.8155 3.888 4.9873 0.34576 0.21638 0.42157 0.33966 0.77227 0.5681 0.50827 0.33108 0.74076 0.66746 1.0239 1.1201z" fill="url(#linearGradient110937)"/>
      <path transform="matrix(.67259 -.74001 .73152 .68182 0 0)" d="m46.047 190.36a7.2881 7.0981 0 0 1-4.9478 6.7222 7.2881 7.0981 0 0 1-8.1254-2.405 7.2881 7.0981 0 0 1-0.27065-8.2668" fill="url(#linearGradient111685)"/>
      <path d="m168.29 99.79a4.1543 4.1543 0 0 1-2.8202 3.9342 4.1543 4.1543 0 0 1-4.6315-1.4075 4.1543 4.1543 0 0 1-0.15431-4.8382" fill-opacity="0"/>
      <g>
       <path d="m190 110.75c0.83128-1.6972 2.2488-3.2642 2.0625-5.1875 0.31762-0.84901 3.4622-0.12745 5.4531-0.0469-0.85446 0.38278-1.1939 0.74993-1.5624 1.3515v2e-5c-0.69995 1.0568-1.8493 2.5657-3.7032 3.9142 0.0245 0.0166 0.049 0.0333 0.0735 0.0501 0.94551 0.64778 1.8586 1.3959 2.752 2.1926" fill="url(#linearGradient117571)"/>
       <path d="m195.08 113.02c0.58688 0.52333 1.1653 1.0676 1.7388 1.6181 0.24648 0.10135 1.1491 0.42032 2.1652 0.78077 0.88581 0.31421 1.9782 0.79368 2.8012 1.1404 0.41771 0.17597 0.38876 0.78641 0.31301 1.1088-0.40562 1.1166-1.0578 1.2822-1.7516 1.2874-0.63747 0.0114-0.72278-0.44585-1.079-0.95003 0 0-0.4788-0.57446-0.75485-0.78017-0.3282-0.24457-1.0116-0.73919-1.0116-0.73919 0.23245 0.35012 0.49614 0.74364 0.72859 1.0503 0.32052 0.15987 0.59593 0.34397 0.75254 0.79069 0.15037 0.49334 0.27944 1.0606-8e-3 1.4012-0.57049 0.24049-1.6894 0.60227-2.7756 0.43364-0.384-0.0596-0.9667-0.33115-1.2884-0.96257-0.11574-1.5367 0.15036-1.8114 0.14717-2.5754-5e-3 -1.1002-1.1213-2.2587-1.5061-2.5969" fill="url(#linearGradient121950)"/>
       <path d="m193.55 114.03c-0.53927-0.4167-2.2527-1.5785-3.0011-2.2008 0.43679-0.27093 1.3374-0.88247 1.7043-1.0489 0.91615 0.64839 2.0832 1.5563 2.8255 2.2427-0.65503 0.41806-1.0493 0.72079-1.5286 1.007z" fill="url(#linearGradient128144)"/>
      </g>
     </g>
     <path d="m139.86 40.556s1.0324-6.6571 4.0371-10.682c2.266-3.035 5.9825-5.1933 10.808-4.6242 1.9133 0.22565 4.3119 0.77584 6.1225 2.0386 2.6008 1.8139 3.9863 4.3695 4.1296 4.9669 0.63029 1.0511 1.9628 5.8145 1.5045 7.8067 0.57314-2.5066 0.49525-4.33 0.47816-5.9015-0.0403-3.7087-0.75505-5.4093-1.5765-7.0233-0.95278-1.8719-2.5034-3.5339-4.5096-4.5744-1.7382-0.90152-4.1821-1.5512-6.5144-1.5478-2.1962 0.0032-5.0407 0.03612-9.0081 2.6591-2.8737 1.8998-4.2559 4.2886-4.8402 5.7373-2.0476 5.0767-0.6308 11.144-0.6308 11.144z" fill="url(#linearGradient94028)"/>
     <path d="m153.39 20.992c5.1057 2.6137 11.213 7.8744 12.652 14.445 1.4397 6.5709-0.94869 12.979-6.4258 20.551-5.6799 7.852-8.3315 14.025-10.033 18.562 1.8741 5.0223 6.7205 7.8618 10.992 10.645 9.0169 5.8739 20.081 5.911 29.176 9.4043 4.4512 1.9852 7.8571 3.8381 12.5 8.8691 0.85614-0.17913 5.2308 1.7306 8.5312 2.4062 1.9729 0.21797 3.4615 0.47264 5.0215 0.28906 1.871-0.22018 4.1314-1.4599 5.957-2.4629-0.9134-3.0012-2.5367-6.5443-5.6484-9.1562-2.36-2.4045-5.7295-4.147-7.2676-4.7949-2.3498-0.96818-4.6904-1.442-7.3281-1.6406-2.8942-0.03045-5.8517 0.43382-8.6406 0.82812 0 0-4.4337 0.7864-6.6719 1.1504-3.7122 0.60369-8.1959 0.58756-12.715-0.53711-3.8705-0.96328-7.1887-3.0586-9.1562-6.6152-1.4727-2.9658-1.6091-7.1011 0.53906-11.73 1.4565-3.1388 4.0696-7.4415 6.3106-11.031 4.9806-7.9786 6.129-15.65 4.2578-23.229-2.1176-8.5767-8.896-16.066-22.051-15.953z" fill="url(#linearGradient93698)"/>
     <path d="m170.67 106.65c1.0065-1.3417 1.6947-2.6463 1.932-3.4432 0.23939-0.80366 0.34746-2.06 0.26325-3.0714-0.20588-2.4728-1.5792-3.8666-3.9291-5.9537 0.97131 1.0964 2.0612 2.1911 2.5446 3.091 0.64518 1.2008 0.93285 2.2504 0.92148 3.6209-0.0157 1.8885-0.64839 3.8211-2.0884 5.3392-1.2484 1.316-3.3991 2.1515-5.1259 2.2612-2.0536 0.13056-4.3736-1.0934-4.3736-1.0934l-1.174 0.30549 0.55176 2.2465s1.3581 1.1868 2.281 1.8192c1.0271 0.70381 3.5451 1.026 2.0834 2.9268-1.557 2.0247-2.6771-0.68648-3.5558-1.3437-1.0784-0.8065-1.9472-1.1795-2.2412-0.83197-0.74712 0.88314 1.2774 3.3759-2.3242 2.7742v1e-5c-4.0422-1.0425-0.5455-2.4112-1.2401-3.7349-0.29627-0.56461-1.2863-0.21783-2.1832 0.0483-1.0505 0.31171-3.3054 2.1891-3.7945-0.2709-0.53852-2.7087 1.9136-1.5105 3.0947-1.7045 1.001-0.16437 3.2067-1.1508 3.2067-1.1508 1.1044-1.0553-1.0093-3.4937-0.59191-4.2378 0.52248-0.93135 2.3252 0.73202 3.0278-0.67286-0.29347-1.1464-0.59821-2.6222-1.5434-3.4277-0.69257-0.48153-1.5829-1.2008-2.3496-2.0848-4.1615-4.7978-6.5533-11.549-5.9163-17.831 0.82867-8.1729 7.2633-17.825 7.2633-17.825-0.0199 0.05954 0.14069 5.1058 1.2365 9.9066 0.73021 3.1991 2.1563 6.1957 3.1936 7.8773 4.551 7.3776 14.463 10.796 22.738 10.224 6.7443-0.46665 11.532-2.0908 17.888-2.3142 4.8528-0.17055 10.553 2.0683 14.043 4.9394 4.7598 3.915 6.0156 6.6149 7.2536 10.659-5.2939 2.8563-5.7356 2.738-10.367 2.275-2.2742-0.2273-5.78-1.6626-8.3806-2.4222-1.0959-0.32012-2.3202 0.57498-2.8583 0.6125-0.93681 0.0653-0.16414 0.76392-2.3158 1.284-0.62773 0.15172-1.3462 0.67982-1.5123 0.91283-0.42833 0.60089-0.64252 0.94447-1.2233 1.7079-0.74696 0.98189-1.3434 1.5826-2.852 2.71 1.8887 1.34 2.8159 2.1831 4.5643 3.8607 1.1543 0.32826 3.4384 1.2829 4.6727 1.7484 0.5464 0.20606 0.65772 0.48276 0.70762 0.9005 0.0596 0.49836-0.51379 1.6234-1.4435 1.6548-0.27131 9e-3 -0.77896 0.1888-1.1217-0.33619-0.25237-0.38658-0.64143-0.94817-0.90102-1.1652-0.49338-0.41244-1.2316-0.9545-1.2316-0.9545 0.25443 0.34714 0.40746 0.57862 0.69672 0.92866 0.17951 0.21722 0.59901 0.39637 0.8278 0.85571 0.21073 0.42321 0.18029 1.2587 0.036 1.4185-0.39863 0.44146-2.5381 0.77844-3.1404 0.45936-0.17269-0.0915-0.79223-0.33741-0.99311-0.83808-0.17731-0.44202-0.0434-1.0015-0.066-1.4112-0.0277-0.50443 0.28216-1.4647 0.0175-1.1994-0.2833 0.28391-0.57299 1.5257-0.73713 2.4557-0.0817 0.46259-0.58063 0.76711-0.71751 0.85881-0.39911 0.26754-2.7273-0.34533-2.8929-0.77672-0.0873-0.22737-0.10556-1.0434 0.13905-1.3909 0.40288-0.57232 1.225-1.084 1.5576-1.3933 0.82754-0.76951 1.2092-1.131 1.2092-1.131-0.38008-0.29857-1.052-0.78647-1.5356-1.0332-0.81692-0.41685-2.0598-0.94694-3.4292-1.4176-0.91369-0.31402-3-1.2188-3-1.2188-0.0372-0.88543 0.50621-1.2933 1.1281-2.0739 0.71632-0.89902 1.2736-2.5966 1.2736-2.5966-2.6226-0.17168-15.515 0.0619-16.54-0.17727z" fill="#00dc32" fill-opacity=".90152"/>
     <path d="m176.35 106.91 0.92753 1.83s1.4715 0.74908 2.4325 1.1036c1.0695 0.39451 3.3768 0.11616 2.5053 2.1311-0.9283 2.1462-2.5302-9e-3 -3.4575-0.3958-1.138-0.4742-1.9928-0.61059-2.1759-0.23619-0.46526 0.95139 1.8905 2.7103-1.4413 2.9835v1e-5c-3.8218-0.0194-1.0246-2.0181-1.9379-3.0374-0.38953-0.43478-1.1906 0.0949-1.9272 0.5322-0.86263 0.51214-2.4435 2.684-3.429 0.60999-1.0851-2.2837 1.3601-1.7697 2.3651-2.2066 0.85175-0.37027 2.5936-1.7656 2.5936-1.7656 0.0167-0.51924-0.0376-1.5831-0.0376-1.5831 1.3284 0.01 2.5209 0.01 3.5825 0.0342z" fill="url(#linearGradient94442)"/>
     <path d="m200.93 105.28c2.0016 1.42 3.0545 2.1417 4.9074 3.9196 1.2233 0.34788 3.6439 1.3596 4.952 1.8529 0.57906 0.21838 0.69703 0.51162 0.74992 0.95433 0.0632 0.52815-0.5445 1.7204-1.5298 1.7537-0.28752 0.01-0.82552 0.20009-1.1888-0.35628-0.26745-0.40969-0.67977-1.0048-0.95487-1.2348-0.52287-0.43709-1.3052-1.0116-1.3052-1.0116 0.26964 0.36789 0.43182 0.6132 0.73837 0.98417 0.19024 0.2302 0.63481 0.42006 0.87728 0.90685 0.22332 0.44851 0.19106 1.3339 0.0382 1.5033-0.42246 0.46785-2.6898 0.82497-3.3281 0.48682-0.18301-0.097-0.83958-0.35758-1.0525-0.88818-0.18791-0.46844-0.046-1.0613-0.07-1.4956-0.0293-0.53458 0.29903-1.5522 0.0186-1.2711-0.30023 0.30088-0.60724 1.6169-0.78119 2.6024-0.0866 0.49024-0.61534 0.81296-0.7604 0.91014-0.42296 0.28353-2.8904-0.36597-3.0658-0.82315-0.0925-0.24096-0.11187-1.1058 0.14736-1.4741 0.42696-0.60653 1.2982-1.1488 1.6507-1.4766 0.877-0.8155 1.2815-1.1986 1.2815-1.1986-0.4028-0.31642-1.1149-0.83348-1.6274-1.095-0.86575-0.44177-2.183-1.0035-3.6342-1.5023-0.96831-0.33279-1.0366-0.46393-1.0366-0.46393 0.11008-0.14057 0.24147-0.38725 0.45689-0.6076 0.22682-0.23201 0.54081-0.43723 0.77573-0.55683 0.13508-0.0688 0.47675-0.22603 1.2953-0.44966 0.45678-0.12479 0.81562-0.43646 0.92855-0.56039 0.40575-0.44527 1.0115 0.43873 1.517 0.59143z" fill="url(#linearGradient94242)"/>
     <g fill="none" stroke-width=".3">
      <path d="m202.98 102.73s7.5345 2.762 11.369 3.0074c2.6347 0.1686 5.3429-1.2877 6.95-2.281-1.1519-2.9499-2.6326-5.618-4.7664-7.7262-3.1863-2.9709-6.5312-5.4253-11.963-6.624" filter="url(#filter104196)" stroke="url(#linearGradient104320)"/>
      <path d="m221.3 103.46s-4.8154-3.9144-7.6828-5.3039c-2.7329-1.3244-8.6866-3.6877-8.6866-3.6877" filter="url(#filter104723)" stroke="url(#linearGradient104733)"/>
      <path d="m221.3 103.46s-4.8154-3.9144-7.6828-5.3039c-2.7329-1.3244-8.6866-3.6877-8.6866-3.6877" filter="url(#filter104723)" stroke="url(#linearGradient104733)"/>
      <path transform="matrix(1.3269 0 0 1.3269 100.29 15.775)" d="m62.511 57.914s-8.794-2.0188-12.016-2.9168c-4.8559-1.3531-8.1653-4.806-8.1653-4.806" filter="url(#filter104723)" stroke="url(#linearGradient105606)"/>
     </g>
     <path d="m157.16 101.06s-0.62421-2.6182 0.0283-4.556c0.85466-2.5382 2-3.75 2-3.75-3.4463-1.1687-6.9299-2.7852-10.494-5.3637 0.053 0.79185 1.0858 4.0666 2.7812 6.9942 1.4699 2.5382 3.6135 4.8155 3.888 4.9873 0.34576 0.21638 0.42157 0.33966 0.77227 0.5681 0.50827 0.33108 0.74076 0.66746 1.0239 1.1201z" fill="url(#linearGradient110937)"/>
     <path transform="matrix(.67259 -.74001 .73152 .68182 0 0)" d="m46.047 190.36a7.2881 7.0981 0 0 1-4.9478 6.7222 7.2881 7.0981 0 0 1-8.1254-2.405 7.2881 7.0981 0 0 1-0.27065-8.2668" fill="url(#linearGradient111685)"/>
     <path d="m168.29 99.79a4.1543 4.1543 0 0 1-2.8202 3.9342 4.1543 4.1543 0 0 1-4.6315-1.4075 4.1543 4.1543 0 0 1-0.15431-4.8382" fill-opacity="0"/>
     <g>
      <path d="m190 110.75c0.83128-1.6972 2.2488-3.2642 2.0625-5.1875 0.31762-0.84901 3.4622-0.12745 5.4531-0.0469-0.85446 0.38278-1.1939 0.74993-1.5624 1.3515v2e-5c-0.69995 1.0568-1.8493 2.5657-3.7032 3.9142 0.0245 0.0166 0.049 0.0333 0.0735 0.0501 0.94551 0.64778 1.8586 1.3959 2.752 2.1926" fill="url(#linearGradient117571)"/>
      <path d="m195.08 113.02c0.58688 0.52333 1.1653 1.0676 1.7388 1.6181 0.24648 0.10135 1.1491 0.42032 2.1652 0.78077 0.88581 0.31421 1.9782 0.79368 2.8012 1.1404 0.41771 0.17597 0.38876 0.78641 0.31301 1.1088-0.40562 1.1166-1.0578 1.2822-1.7516 1.2874-0.63747 0.0114-0.72278-0.44585-1.079-0.95003 0 0-0.4788-0.57446-0.75485-0.78017-0.3282-0.24457-1.0116-0.73919-1.0116-0.73919 0.23245 0.35012 0.49614 0.74364 0.72859 1.0503 0.32052 0.15987 0.59593 0.34397 0.75254 0.79069 0.15037 0.49334 0.27944 1.0606-8e-3 1.4012-0.57049 0.24049-1.6894 0.60227-2.7756 0.43364-0.384-0.0596-0.9667-0.33115-1.2884-0.96257-0.11574-1.5367 0.15036-1.8114 0.14717-2.5754-5e-3 -1.1002-1.1213-2.2587-1.5061-2.5969" fill="url(#linearGradient121950)"/>
      <path d="m193.55 114.03c-0.53927-0.4167-2.2527-1.5785-3.0011-2.2008 0.43679-0.27093 1.3374-0.88247 1.7043-1.0489 0.91615 0.64839 2.0832 1.5563 2.8255 2.2427-0.65503 0.41806-1.0493 0.72079-1.5286 1.007z" fill="url(#linearGradient128144)"/>
     </g>
    </g>
   </g>
  </g>
 </g>
</svg>
